<?xml version="1.0" encoding="UTF-8"?>
<svg xmlns="http://www.w3.org/2000/svg" width="97" height="99" viewBox="0 0 97 99" fill="none">
  <path d="M24.6227 6.16263C32.4018 3.33709 43.3111 10.2371 54.1453 14.0048C61.314 16.4978 70.3322 19.4635 76.8418 22.7759C89.8693 29.4051 90.943 42.3946 78.4555 52.582C71.6414 58.141 67.7725 55.0965 63.7203 57.905C55.5726 63.5522 51.6715 70.1887 39.4308 69.3885C21.1024 68.1903 22.5193 57.8688 22.4392 49.5407C22.3591 41.2126 13.0523 36.0283 11.8004 27.9485C10.5485 19.8687 11.6963 10.8578 24.6227 6.16263Z" fill="#E3E3DC"></path>
  <g filter="url(#filter0_d)">
    <path fill-rule="evenodd" clip-rule="evenodd" d="M48.3639 66.5486C63.678 66.5486 76.0925 54.134 76.0925 38.8199C76.0925 23.5058 63.678 11.0913 48.3639 11.0913C33.0498 11.0913 20.6353 23.5058 20.6353 38.8199C20.6353 54.134 33.0498 66.5486 48.3639 66.5486Z" fill="#E8B837"></path>
  </g>
  <path d="M68.8849 16.0823C69.8038 16.0823 70.5486 15.3374 70.5486 14.4186C70.5486 13.4998 69.8038 12.7549 68.8849 12.7549C67.9661 12.7549 67.2212 13.4998 67.2212 14.4186C67.2212 15.3374 67.9661 16.0823 68.8849 16.0823Z" fill="#E9C155"></path>
  <path d="M62.2299 5.54573C63.7613 5.54573 65.0028 4.30427 65.0028 2.77286C65.0028 1.24145 63.7613 0 62.2299 0C60.6985 0 59.457 1.24145 59.457 2.77286C59.457 4.30427 60.6985 5.54573 62.2299 5.54573Z" fill="#E9C155"></path>
  <path d="M64.2917 35.1667C64.15 35.1667 64.0083 35.1667 63.8667 35.025L60.325 32.6167C60.0417 32.475 59.6167 32.3333 59.1917 32.3333H50.125C48.9917 32.3333 48 31.3417 48 30.2083V23.125C48 21.9917 48.9917 21 50.125 21H62.875C64.0083 21 65 21.9917 65 23.125V34.4583C65 34.7417 64.8583 35.025 64.575 35.025C64.575 35.1667 64.4333 35.1667 64.2917 35.1667ZM50.125 22.4167C49.7 22.4167 49.4167 22.7 49.4167 23.125V30.2083C49.4167 30.6333 49.7 30.9167 50.125 30.9167H59.1917C59.9 30.9167 60.6083 31.0583 61.175 31.4833L63.5833 33.1833V23.125C63.5833 22.7 63.3 22.4167 62.875 22.4167H50.125Z" fill="white"></path>
  <path d="M31.7083 37.9999C31.5667 37.9999 31.425 37.9999 31.425 37.8583C31.1417 37.8583 31 37.5749 31 37.2916V25.9583C31 24.8249 31.9917 23.8333 33.125 23.8333H44.4583C44.8833 23.8333 45.1667 24.1166 45.1667 24.5416C45.1667 24.9666 44.8833 25.2499 44.4583 25.2499H33.125C32.7 25.2499 32.4167 25.5333 32.4167 25.9583V36.0166L34.825 34.4583C35.3917 34.0333 36.1 33.7499 36.8083 33.7499H48.7083C49.1333 33.7499 49.4167 34.0333 49.4167 34.4583C49.4167 34.8833 49.1333 35.1666 48.7083 35.1666H36.8083C36.3833 35.1666 35.9583 35.3083 35.675 35.5916L32.1333 37.9999C31.9917 37.9999 31.85 37.9999 31.7083 37.9999Z" fill="white"></path>
  <path d="M38.7915 46.5C36.3832 46.5 34.5415 44.6583 34.5415 42.25C34.5415 39.8417 36.3832 38 38.7915 38C41.1998 38 43.0415 39.8417 43.0415 42.25C43.0415 44.6583 41.1998 46.5 38.7915 46.5ZM38.7915 39.4167C37.2332 39.4167 35.9582 40.6917 35.9582 42.25C35.9582 43.8083 37.2332 45.0833 38.7915 45.0833C40.3498 45.0833 41.6248 43.8083 41.6248 42.25C41.6248 40.6917 40.3498 39.4167 38.7915 39.4167Z" fill="white"></path>
  <path d="M45.875 55.0001C45.45 55.0001 45.1667 54.7167 45.1667 54.2917V51.4584C45.1667 50.3251 44.175 49.3334 43.0417 49.3334H34.5417C33.4083 49.3334 32.4167 50.3251 32.4167 51.4584V54.2917C32.4167 54.7167 32.1333 55.0001 31.7083 55.0001C31.2833 55.0001 31 54.7167 31 54.2917V51.4584C31 49.4751 32.5583 47.9167 34.5417 47.9167H43.0417C45.025 47.9167 46.5833 49.4751 46.5833 51.4584V54.2917C46.5833 54.7167 46.3 55.0001 45.875 55.0001Z" fill="white"></path>
  <path d="M57.2085 46.5C54.8002 46.5 52.9585 44.6583 52.9585 42.25C52.9585 39.8417 54.8002 38 57.2085 38C59.6168 38 61.4585 39.8417 61.4585 42.25C61.4585 44.6583 59.6168 46.5 57.2085 46.5ZM57.2085 39.4167C55.6502 39.4167 54.3752 40.6917 54.3752 42.25C54.3752 43.8083 55.6502 45.0833 57.2085 45.0833C58.7668 45.0833 60.0418 43.8083 60.0418 42.25C60.0418 40.6917 58.7668 39.4167 57.2085 39.4167Z" fill="white"></path>
  <path d="M64.2915 55.0001C63.8665 55.0001 63.5832 54.7167 63.5832 54.2917V51.4584C63.5832 50.3251 62.5915 49.3334 61.4582 49.3334H52.9582C51.8248 49.3334 50.8332 50.3251 50.8332 51.4584V54.2917C50.8332 54.7167 50.5498 55.0001 50.1248 55.0001C49.6998 55.0001 49.4165 54.7167 49.4165 54.2917V51.4584C49.4165 49.4751 50.9748 47.9167 52.9582 47.9167H61.4582C63.4415 47.9167 64.9998 49.4751 64.9998 51.4584V54.2917C64.9998 54.7167 64.7165 55.0001 64.2915 55.0001Z" fill="white"></path>
  <defs>
    <filter id="filter0_d" x="0.635254" y="3.09131" width="95.4573" height="95.4573" color-interpolation-filters="sRGB">
      <feFlood flood-opacity="0" result="BackgroundImageFix"></feFlood>
      <feColorMatrix in="SourceAlpha" type="matrix" values="0 0 0 0 0 0 0 0 0 0 0 0 0 0 0 0 0 0 127 0" result="hardAlpha"></feColorMatrix>
      <feOffset dy="12"></feOffset>
      <feGaussianBlur stdDeviation="10"></feGaussianBlur>
      <feColorMatrix type="matrix" values="0 0 0 0 0 0 0 0 0 0 0 0 0 0 0 0 0 0 0.1 0"></feColorMatrix>
      <feBlend mode="normal" in2="BackgroundImageFix" result="effect1_dropShadow"></feBlend>
      <feBlend mode="normal" in="SourceGraphic" in2="effect1_dropShadow" result="shape"></feBlend>
    </filter>
  </defs>
</svg>
